<svg height="60" viewBox="0 0 120 60" width="120" xmlns="http://www.w3.org/2000/svg"><g fill="#47848f" fill-rule="evenodd" transform="translate(.000002)"><path d="m30.06158 34.63826h6.056248c.172278 0 .318052-.145775.318052-.318052 0-.172278-.145774-.318053-.318052-.318053h-5.711691v-3.723863h5.049082c.172278 0 .318052-.145774.318052-.318053s-.145774-.318053-.318052-.318053h-5.049082v-3.644349h5.64543c.172279 0 .318053-.145774.318053-.318053 0-.172278-.145774-.318053-.318053-.318053h-5.989987c-.18553 0-.344557.159027-.344557.344557v8.587415c0 .18553.159027.344556.344557.344557zm10.579028-.344556c0 .18553.159026.344556.344557.344556h5.526161c.172278 0 .318052-.145775.318052-.318052 0-.172278-.145774-.318053-.318052-.318053h-5.181604v-8.348876c0-.185531-.159026-.344556-.344557-.344556s-.344557.159026-.344557.344557zm10.59228.344556h6.056248c.172278 0 .318052-.145775.318052-.318052 0-.172278-.145774-.318053-.318052-.318053h-5.711691v-3.723863h5.049082c.172278 0 .318052-.145774.318052-.318053s-.145774-.318053-.318052-.318053h-5.049082v-3.644349h5.64543c.172278 0 .318052-.145774.318052-.318053 0-.172278-.145774-.318053-.318052-.318053h-5.989987c-.185531 0-.344557.159027-.344557.344557v8.587415c0 .18553.159026.344556.344557.344557zm14.77997.159027c1.550506 0 2.570924-.569844 3.511829-1.444488.05301-.05301.106017-.132522.106017-.23854 0-.172278-.159026-.331304-.331304-.331304-.106018 0-.185531.05301-.238539.106017-.874645.834888-1.762541 1.285462-3.021498 1.285462-2.213115 0-3.922647-1.828801-3.922647-4.174438v-.0265c0-2.332384 1.683028-4.147934 3.909395-4.147934 1.298713 0 2.18661.503583 2.955236 1.205949.05301.05301.145774.09276.23854.09276.18553 0 .357809-.159026.357809-.344556 0-.11927-.06626-.212035-.132522-.278296-.901149-.768627-1.868558-1.298714-3.405811-1.298714-2.676941 0-4.638265 2.173358-4.638265 4.79729v.02651c0 2.663688 1.961324 4.770786 4.61176 4.770786zm10.194715-.450576c0 .185531.159027.344557.344557.344557.185531 0 .344557-.159025.344557-.344557v-8.348875h2.968489c.172278 0 .318052-.145774.318052-.318053 0-.172278-.145774-.318052-.318052-.318052h-6.626092c-.172278 0-.318052.145774-.318052.318052 0 .172279.145774.318053.318052.318053h2.968489zm8.061114 0c0 .185531.159026.344557.344557.344557.18553 0 .344556-.159025.344556-.344557v-3.551585h3.03475l2.84922 3.710612c.07951.106017.172278.18553.3048.18553.185531 0 .357809-.172278.357809-.357809 0-.07951-.03976-.159026-.106018-.238539l-2.637184-3.419063c1.563758-.212035 2.716698-1.099932 2.716698-2.650437v-.0265c0-.662609-.265044-1.285461-.702366-1.722783-.556592-.556592-1.470993-.914401-2.61068-.914401h-3.551585c-.185531 0-.344557.159026-.344557.344557zm.689113-4.174437v-4.174438h3.167272c1.683027 0 2.663689.781879 2.663689 2.027584v.0265c0 1.338471-1.15294 2.12035-2.703445 2.12035zm15.17754 4.625012c2.80945 0 4.67801-2.266124 4.67801-4.797291v-.0265c0-2.531167-1.84205-4.770786-4.65151-4.770786-2.809462 0-4.67802 2.266123-4.67802 4.79729v.02651c0 2.531167 1.842052 4.770786 4.65152 4.770786zm.0265-.622853c-2.292632 0-3.962408-1.88181-3.962408-4.174438v-.0265c0-2.292628 1.643272-4.147934 3.935898-4.147934 2.29263 0 3.9624 1.88181 3.9624 4.174439v.02651c0 2.292627-1.64327 4.147933-3.93589 4.147933zm9.04177.185531c0 .18553.14577.331304.3313.331304s.33131-.145774.33131-.331304v-7.991067l6.3743 8.083832c.10602.132522.21203.225287.34456.225287h.053c.15903 0 .2783-.132522.2783-.291548v-8.746441c0-.185531-.14577-.331305-.3313-.331305s-.33131.145774-.33131.331305v7.818788l-6.25503-7.938057c-.0928-.11927-.19878-.198783-.34456-.198783h-.10601c-.18553 0-.34456.159027-.34456.344557z"/><g transform="matrix(1.5259166 0 0 1.5259166 -4.545967 -15.777497)"><path d="m10.455395 25.221775c-2.1904407-.398953-3.9223356.0186-4.6125867 1.214155-.5150808.892146-.3678491 2.074983.3570662 3.339363.061701.107618.1989607.14484.3065781.08314.1076175-.0617.1448401-.19896.083139-.306578-.653012-1.138969-.7800786-2.159803-.3577416-2.891312.5733944-.993148 2.1182147-1.365602 4.14305-.996812.122043.02223.238998-.05869.261226-.180731.02223-.122042-.05869-.238997-.180731-.261225zm-3.1164183 6.090364c.8856922.97331 2.0363542 1.886226 3.3486193 2.643862 3.177443 1.834498 6.560055 2.324837 8.227147 1.188119.102493-.06988.128925-.209625.05904-.312117-.06988-.102491-.209624-.128924-.312116-.05904-1.492027 1.017349-4.705264.551562-7.749457-1.206004-1.2730454-.734993-2.3872642-1.618995-3.2409795-2.557165-.08349-.09175-.2255496-.09845-.3172989-.01496-.091749.08349-.098445.22555-.014955.317299z"/><path d="m18.382943 31.038892c1.434248-1.69434 1.935037-3.398464 1.246208-4.591552-.506854-.877897-1.578358-1.34139-3.002369-1.359909-.12404-.0016-.225901.09763-.227515.221673-.0016.12404.09763.225902.221673.227515 1.280719.01666 2.203841.415965 2.619169 1.135334.572155.991002.125562 2.510702-1.200042 4.076697-.08015.09468-.06837.236411.02632.316559.09468.08015.236411.06837.316559-.02632zm-3.686-5.742324c-1.296796.277845-2.677119.821086-4.002759 1.586445-3.28011 1.893772-5.4198 4.686207-5.1226328 6.710976.018013.122735.1321131.207629.2548488.189616.1227356-.01801.2076298-.132113.1896164-.254848-.2638532-1.797782 1.7643632-4.444736 4.9027806-6.256702 1.285976-.742459 2.622498-1.268462 3.872259-1.536229.121298-.02599.198561-.145388.172572-.266685-.02599-.121298-.145387-.198561-.266685-.172573z"/><path d="m9.3830404 34.997748c.7498916 2.093967 1.9767136 3.383209 3.3562326 3.383209 1.006109 0 1.936958-.685833 2.662828-1.893294.06391-.106319.02954-.244319-.07678-.308233-.106318-.06391-.244318-.02954-.308232.07678-.652338 1.085144-1.453627 1.67552-2.277815 1.67552-1.145932 0-2.240149-1.149891-2.9333082-3.085441-.0418249-.116787-.1704047-.177556-.2871921-.135733-.1167874.041824-.1775572.170404-.1357333.287192zm6.8497106-.409604c.388205-1.240555.596702-2.671648.596702-4.162932 0-3.721177-1.302395-6.928971-3.157484-7.752687-.113376-.05034-.246096.000753-.296439.114133-.05034.113376.000753.246096.114133.296439 1.654515.734655 2.890563 3.779038 2.890563 7.342115 0 1.446788-.201913 2.832691-.5762 4.028772-.03705.118389.02889.244396.147282.281442.11839.03705.244396-.02889.281443-.147282z"/><path d="m20.463085 34.368089c0-.593727-.481312-1.075037-1.075038-1.075037-.593727 0-1.075038.48131-1.075038 1.075037s.481311 1.075039 1.075038 1.075039c.593726 0 1.075038-.481312 1.075038-1.075039zm-.449227 0c0 .345626-.280185.625812-.625811.625812s-.625812-.280186-.625812-.625812.280186-.62581.625812-.62581.625811.280184.625811.62581z"/><path d="m6.0750377 35.443128c.593727 0 1.0750378-.481312 1.0750378-1.075039s-.4813108-1.075037-1.0750378-1.075037-1.0750378.48131-1.0750378 1.075037.4813108 1.075039 1.0750378 1.075039zm0-.449227c-.345626 0-.6258113-.280186-.6258113-.625812s.2801853-.62581.6258113-.62581.6258112.280184.6258112.62581-.2801852.625812-.6258112.625812z"/><path d="m12.739273 23.769118c.593727 0 1.075038-.481311 1.075038-1.075038s-.481311-1.075038-1.075038-1.075038-1.075038.481311-1.075038 1.075038.481311 1.075038 1.075038 1.075038zm0-.449227c-.345626 0-.625811-.280185-.625811-.625811s.280185-.625811.625811-.625811.625811.280185.625811.625811-.280185.625811-.625811.625811z"/><path d="m12.903477 31.185466c-.419897.09073-.83358-.176126-.924484-.596023-.09055-.419898.176126-.833581.596023-.924485.419898-.09073.833581.176126.924485.596024.09073.419897-.176126.83358-.596024.924484z"/></g></g></svg>