<svg enable-background="new 0 0 1228.5 351" height="60" viewBox="0 0 120 60" width="120" xmlns="http://www.w3.org/2000/svg" xmlns:xlink="http://www.w3.org/1999/xlink"><filter id="a" height="2" width="2" x="-.5" y="-.5"><feGaussianBlur in="SourceAlpha" result="shadowBlurInner1" stdDeviation="3.5"/><feOffset dx="1" dy="-9" in="shadowBlurInner1" result="shadowOffsetInner1"/><feComposite in="shadowOffsetInner1" in2="SourceAlpha" k1="0" k2="-1" k3="1" k4="0" operator="arithmetic" result="shadowInnerInner1"/><feColorMatrix in="shadowInnerInner1" type="matrix" values="0 0 0 0 0   0 0 0 0 0   0 0 0 0 0  0 0 0 0.09 0"/></filter><filter id="b" height="2" width="2" x="-.5" y="-.5"><feGaussianBlur in="SourceAlpha" result="shadowBlurInner1" stdDeviation="17.5"/><feOffset dx="0" dy="0" in="shadowBlurInner1" result="shadowOffsetInner1"/><feComposite in="shadowOffsetInner1" in2="SourceAlpha" k1="0" k2="-1" k3="1" k4="0" operator="arithmetic" result="shadowInnerInner1"/><feColorMatrix in="shadowInnerInner1" type="matrix" values="0 0 0 0 0   0 0 0 0 0   0 0 0 0 0  0 0 0 0.06 0"/></filter><g transform="matrix(.09020347 0 0 .09020347 11.921255 15.418666)"><path d="m0 282.998 2.123-2.973 100.404-190.513.212-2.017-44.26-83.137c-3.708-6.964-14.148-5.204-15.365 2.592z" fill="#ffc24a"/><path d="m1.253 280.731 1.605-3.13 99.353-188.518-44.149-83.475c-3.669-6.892-12.987-5.135-14.191 2.58z" fill="#ffa712"/><g filter="url(#b)"><path d="m1.253 280.731 1.605-3.13 99.353-188.518-44.149-83.475c-3.669-6.892-12.987-5.135-14.191 2.58z"/></g><path d="m135.005 150.381 32.955-33.751-32.964-62.93c-3.13-5.957-11.867-5.974-14.963 0l-17.612 33.589v2.861z" fill="#f4bd62"/><path d="m134.417 148.974 32.038-32.812-32.038-61.007c-3.042-5.791-10.433-6.398-13.443-.59l-17.705 34.109-.529 1.744z" fill="#ffa50e"/><g filter="url(#a)"><path d="m134.417 148.974 32.038-32.812-32.038-61.007c-3.042-5.791-10.433-6.398-13.443-.59l-17.705 34.109-.529 1.744z"/></g><path d="m102.513 87.105-102.513 195.893.962-.968 3.496-1.421 128.478-128 1.626-4.43z" fill="#f6820c"/><path d="m139.121 347.551 116.275-64.848-33.205-204.494c-1.039-6.398-8.888-8.928-13.467-4.34l-208.724 209.129 115.608 64.548c7.307 4.079 16.204 4.081 23.513.005" fill="#fde068"/><path d="m254.354 282.16-32.952-202.942c-1.031-6.35-7.559-8.977-12.104-4.424l-208.008 207.807 114.338 63.909c7.25 4.048 16.081 4.05 23.334.006z" fill="#fcca3f"/><path d="m139.121 345.641c-7.309 4.076-16.207 4.074-23.513-.006l-114.677-63.62-.931.983 115.608 64.548c7.306 4.079 16.204 4.081 23.513.005l116.275-64.848-.285-1.752z" fill="#eeab37"/></g><g fill="#63666a" transform="matrix(.07885571 0 0 .07885571 13.091039 17.01888)"><path d="m378.012 269.076h-22.638v-176.177h102.853v21.652h-80.215v57.824h72.341v21.161h-72.341z"/><path d="m497.898 118.242c-3.118 3.118-6.891 4.676-11.318 4.676-4.43 0-8.205-1.558-11.318-4.676-3.119-3.114-4.676-6.889-4.676-11.318 0-4.427 1.557-8.199 4.676-11.317 3.113-3.114 6.889-4.675 11.318-4.675 4.428 0 8.2 1.561 11.318 4.675 3.113 3.118 4.676 6.891 4.676 11.317 0 4.43-1.562 8.204-4.676 11.318zm0 150.834h-22.637v-120.567h22.637z"/><path d="m546.756 269.076h-22.636v-120.567h21.653v19.685h.982c2.297-6.559 7.015-11.972 14.15-16.239 7.134-4.265 14.063-6.398 20.791-6.398 6.725 0 12.384.983 16.979 2.953l-8.612 21.16c-2.953-1.146-6.975-1.721-12.058-1.721-8.203 0-15.463 3.24-21.774 9.719-6.317 6.481-9.476 14.971-9.476 25.468v65.94z"/><path d="m658.204 273.014c-18.21 0-33.015-6.066-44.415-18.209-11.402-12.136-17.101-27.473-17.101-46.012 0-17.55 5.535-32.641 16.608-45.274 11.072-12.631 25.222-18.946 42.446-18.946 17.877 0 32.19 5.824 42.937 17.47 10.741 11.649 16.116 27.231 16.116 46.751l-.247 4.185h-95.224c.654 12.141 4.715 21.736 12.18 28.788 7.463 7.055 16.198 10.581 26.206 10.581 16.239 0 27.229-6.891 32.972-20.669l20.177 8.364c-3.938 9.351-10.418 17.187-19.438 23.498-9.024 6.313-20.095 9.473-33.217 9.473zm32.479-78.738c-.491-6.891-3.652-13.449-9.473-19.687-5.824-6.23-14.479-9.35-25.96-9.35-8.366 0-15.624 2.627-21.776 7.873-6.15 5.254-10.377 12.305-12.671 21.163h69.88z"/><path d="m796.719 273.014c-9.188 0-17.433-1.967-24.73-5.905-7.299-3.936-12.754-8.857-16.362-14.762h-.983v16.729h-21.653v-176.177h22.637v55.609l-.983 16.731h.983c3.608-5.905 9.063-10.827 16.362-14.763 7.298-3.938 15.543-5.905 24.73-5.905 15.582 0 29.034 6.15 40.354 18.453 11.318 12.305 16.978 27.559 16.978 45.768s-5.659 33.464-16.978 45.768c-11.321 12.302-24.773 18.454-40.355 18.454zm-3.691-20.667c10.496 0 19.519-3.977 27.065-11.936 7.544-7.954 11.318-18.491 11.318-31.618 0-13.122-3.774-23.658-11.318-31.619-7.547-7.954-16.569-11.934-27.065-11.934-10.666 0-19.729 3.938-27.19 11.811-7.467 7.875-11.195 18.457-11.195 31.742 0 13.288 3.729 23.868 11.195 31.741 7.462 7.874 16.524 11.813 27.19 11.813z"/><path d="m913.68 273.014c-12.795 0-23.5-3.69-32.112-11.071-8.61-7.382-12.917-17.141-12.917-29.281 0-13.122 5.083-23.415 15.255-30.881 10.17-7.463 22.719-11.196 37.646-11.196 13.288 0 24.195 2.461 32.727 7.382v-3.444c0-8.858-3.037-15.952-9.104-21.283-6.07-5.33-13.533-7.998-22.391-7.998-6.563 0-12.511 1.561-17.84 4.675-5.331 3.118-8.981 7.382-10.949 12.795l-20.668-8.857c2.786-7.216 8.282-13.902 16.486-20.053 8.2-6.152 19.026-9.228 32.479-9.228 15.418 0 28.212 4.513 38.385 13.533 10.17 9.023 15.256 21.738 15.256 38.139v72.832h-21.653v-16.729h-.983c-9.025 13.775-22.232 20.665-39.617 20.665zm3.691-20.667c9.349 0 17.838-3.485 25.464-10.458 7.63-6.971 11.443-15.215 11.443-24.73-6.396-5.247-15.993-7.873-28.789-7.873-10.991 0-19.276 2.379-24.852 7.136-5.579 4.761-8.366 10.334-8.366 16.732 0 5.905 2.541 10.579 7.629 14.025 5.082 3.443 10.907 5.168 17.471 5.168z"/><path d="m1041.773 273.014c-13.451 0-24.566-3.282-33.34-9.841-8.775-6.56-15.217-14.765-19.314-24.607l20.176-8.364c6.396 15.094 17.305 22.636 32.726 22.636 7.052 0 12.835-1.557 17.347-4.675 4.511-3.113 6.768-7.216 6.768-12.303 0-7.874-5.497-13.202-16.485-15.994l-24.36-5.905c-7.712-1.968-15.009-5.698-21.898-11.195-6.891-5.494-10.336-12.918-10.336-22.27 0-10.66 4.715-19.314 14.149-25.958 9.431-6.644 20.627-9.965 33.587-9.965 10.66 0 20.176 2.422 28.542 7.257 8.367 4.841 14.353 11.773 17.964 20.792l-19.685 8.121c-4.43-10.662-13.62-15.993-27.56-15.993-6.729 0-12.388 1.396-16.979 4.183-4.594 2.792-6.888 6.562-6.888 11.318 0 6.89 5.327 11.564 15.993 14.026l23.867 5.657c11.318 2.627 19.686 7.138 25.098 13.534 5.413 6.397 8.12 13.618 8.12 21.653 0 10.827-4.43 19.852-13.287 27.066-8.859 7.217-20.262 10.827-34.205 10.827z"/><path d="m1162.322 273.014c-18.21 0-33.016-6.066-44.414-18.209-11.404-12.136-17.101-27.473-17.101-46.012 0-17.55 5.535-32.641 16.608-45.274 11.072-12.631 25.222-18.946 42.445-18.946 17.878 0 32.19 5.824 42.938 17.47 10.74 11.649 16.115 27.231 16.115 46.751l-.246 4.185h-95.224c.653 12.141 4.713 21.736 12.18 28.788 7.463 7.055 16.197 10.581 26.205 10.581 16.239 0 27.229-6.891 32.972-20.669l20.178 8.364c-3.938 9.351-10.421 17.187-19.439 23.498-9.023 6.313-20.096 9.473-33.217 9.473zm32.479-78.738c-.492-6.891-3.651-13.449-9.472-19.687-5.824-6.23-14.48-9.35-25.962-9.35-8.364 0-15.622 2.627-21.774 7.873-6.151 5.254-10.378 12.305-12.672 21.163h69.88z"/></g></svg>